<svg xmlns="http://www.w3.org/2000/svg" viewBox="0 0 464.1 105.7"><defs><style>.cls-1{fill:#40b16d;fill-rule:evenodd;}.cls-2{fill:#fff;}</style></defs><title>duniamaps_logo_light</title><g id="Layer_2" data-name="Layer 2"><g id="Layer_1-2" data-name="Layer 1"><g id="Layer_1-2-2" data-name="Layer 1-2"><path class="cls-1" d="M237.78,0c-15.19,0-27.5,11.31-27.5,26.5,0,14,9,20,16,26.88,7.8,7.66,6,14.62,11.49,14.62s3.69-7,11.49-14.62c7-6.88,16-13.88,16-26.88C265.28,11.31,253,0,237.78,0Zm14.13,23.61-16,16.83L225.28,29.79A3.33,3.33,0,0,1,230,25.08l5.85,5.84L247.08,19a3.32,3.32,0,1,1,4.83,4.57Z"/><path class="cls-2" d="M20.38,55.1c14.18,0,25.85,10.9,25.85,25.2s-11.67,25.2-25.85,25.2H1.94c-1.51,0-1.94-.43-1.94-1.94V57c0-1.51.43-1.94,1.94-1.94Zm-8.64,9.72v31H20.3c9.22,0,14.05-7.63,14.05-15.48s-4.84-15.52-14-15.52Z"/><path class="cls-2" d="M110,55.17a3.39,3.39,0,0,1,.93.26,3,3,0,0,1,.78.54l.25.23c.34.39,1.16,1.41,1.84,2.28L135,85.59c.68.87,1.16.72,1.07-.33v-.91l0-.91V57.1a2,2,0,0,1,2-2h6.19a2,2,0,0,1,2,2v46.4a2,2,0,0,1-2,2h-2c-1.1,0-2.74-.06-3.64-.13l-.62-.28-.61-.28c-.64-.68-1.72-2-2.4-2.82l-21-26.87c-.67-.87-1.17-.8-1.1.16v28.21a2,2,0,0,1-2,2h-6.19a2,2,0,0,1-2-2V57.1a2,2,0,0,1,2-2h5Z"/><path class="cls-2" d="M167,103.5a2,2,0,0,1-2,2h-7.63a2,2,0,0,1-2-2V57.1a2,2,0,0,1,2-2H165a2,2,0,0,1,2,2Z"/><path class="cls-2" d="M51.87,84.22V57c0-1.48.43-1.91,1.94-1.91h7.85c1.51,0,1.94.43,1.94,1.91V83.87c0,7.7,3.17,11.66,10.08,11.66S83.76,91.6,83.76,83.87V57c0-1.48.44-1.91,1.95-1.91h7.85c1.51,0,1.94.43,1.94,1.91V84.22c0,14.07-10.08,21.28-21.82,21.28S51.87,98.29,51.87,84.22Z"/><path class="cls-2" d="M228.07,103.56a1.28,1.28,0,0,1-.47,1.76h0a1.32,1.32,0,0,1-.75.17h-9.21c-1.3,0-1.73-.43-2.52-1.94l-3.83-7.42H191.06l-3.78,7.42c-.79,1.51-1.22,1.94-2.52,1.94h-9.22a1.34,1.34,0,0,1-1.37-1.29,1.44,1.44,0,0,1,.15-.65L199.48,56.1c.72-1.22.94-1.94,1.59-1.94h.21c.65,0,.87.72,1.59,1.94ZM201.28,73.82h-.14L195,86.2h12.4Z"/><path class="cls-2" d="M293.45,85.36l.48,1.06c.42,1,1.1,1,1.51,0l.51-1.11.46-1,1.82-3.56,11.26-22c.5-1,1.13-2.13,1.39-2.55l.24-.25a2.37,2.37,0,0,1,.82-.53,2.85,2.85,0,0,1,1-.18h8.37a2,2,0,0,1,2,2v46.4a2,2,0,0,1-2,2h-6.43a2,2,0,0,1-2-2V75.23c0-.8-.24-2.31-.75-1.33L300.55,96.26a33.2,33.2,0,0,1-1.91,3.19l-.71.42-.71.41c-1,.12-2.09.21-2.53.21s-1.58-.09-2.53-.21l-.71-.41-.71-.42c-.54-.78-1.4-2.22-1.91-3.19L277.1,73.84c-.51-1-.85-1-.76-.16v.8l.05.79v28.4a2,2,0,0,1-2,2H268a2,2,0,0,1-2-2V57.28a2,2,0,0,1,2-2h8.38a2.85,2.85,0,0,1,1,.18,2.35,2.35,0,0,1,.83.53l.24.25c.26.42.89,1.58,1.39,2.55l11.3,22.05L293,84.4Z"/><path class="cls-2" d="M401.17,88.84a2,2,0,0,0-2,2v12.84a2,2,0,0,1-2,2h-7.83a2,2,0,0,1-2-2V57.28a2,2,0,0,1,2-2h14c1.1,0,2.9.06,4,.13a38,38,0,0,1,7.26,1.13A18,18,0,0,1,421,60a13.57,13.57,0,0,1,3.69,5.22,17.43,17.43,0,0,1,1.19,6.51,18.81,18.81,0,0,1-1.22,6.92A14,14,0,0,1,420.91,84a17.74,17.74,0,0,1-6.38,3.51,37.62,37.62,0,0,1-7.16,1.14c-1.1.07-2.9.13-4,.13Zm-2-10.82a2,2,0,0,0,2,2h2.16a35.68,35.68,0,0,0,4-.28s3.31-.45,4.66-1.9a8.61,8.61,0,0,0,2-6.09,8.9,8.9,0,0,0-.52-3.15,6.3,6.3,0,0,0-1.59-2.44,7.35,7.35,0,0,0-2.7-1.57,7.92,7.92,0,0,0-1.87-.42c-1.1-.08-2.9-.14-4-.14h-2.16a2,2,0,0,0-2,2Z"/><path class="cls-2" d="M461.39,64.09a28.93,28.93,0,0,1-1.68,2.7l-.39.27a2.53,2.53,0,0,1-1.49.41A3.86,3.86,0,0,1,456.1,67L454,65.9a17.35,17.35,0,0,0-2.68-1.1,11.08,11.08,0,0,0-3.43-.49,7.53,7.53,0,0,0-4.95,1.37,4.58,4.58,0,0,0-1.63,3.7,3.36,3.36,0,0,0,1,2.47,8.39,8.39,0,0,0,2.58,1.7,27.66,27.66,0,0,0,3.64,1.3c1.36.39,2.75.83,4.18,1.32a35.24,35.24,0,0,1,4.18,1.71,13.79,13.79,0,0,1,3.64,2.5,11.77,11.77,0,0,1,2.57,3.71,12.83,12.83,0,0,1,1,5.26,16.71,16.71,0,0,1-1.22,6.4,15,15,0,0,1-3.55,5.2,16.66,16.66,0,0,1-5.74,3.48,22.29,22.29,0,0,1-7.76,1.27,26.28,26.28,0,0,1-4.84-.47,29.23,29.23,0,0,1-4.78-1.34,27.75,27.75,0,0,1-4.34-2,14.85,14.85,0,0,1-2-1.34,2.34,2.34,0,0,1-.43-3l1.31-2c.6-.92,1.37-2,1.71-2.41l.47-.25a3.26,3.26,0,0,1,1.5-.37,4.21,4.21,0,0,1,2.12.64c.71.43,1.52.91,2.42,1.43A20.11,20.11,0,0,0,442,96a12.09,12.09,0,0,0,4.13.64,8.14,8.14,0,0,0,5-1.37,5.15,5.15,0,0,0,1.78-4.35,4,4,0,0,0-1-2.81,7.54,7.54,0,0,0-2.57-1.79A25.17,25.17,0,0,0,445.76,85c-1.36-.36-2.74-.76-4.17-1.2a31.41,31.41,0,0,1-4.16-1.62,13.07,13.07,0,0,1-3.62-2.54,11.87,11.87,0,0,1-2.58-3.93,15.12,15.12,0,0,1-1-5.8,13.5,13.5,0,0,1,1.16-5.42,13.87,13.87,0,0,1,3.39-4.7,16.85,16.85,0,0,1,5.5-3.3,20.57,20.57,0,0,1,7.45-1.24,29.13,29.13,0,0,1,4.57.36,23.55,23.55,0,0,1,4.22,1,23,23,0,0,1,3.73,1.65,13.43,13.43,0,0,1,1.53,1,2.44,2.44,0,0,1,.6,3Z"/><path class="cls-2" d="M382.53,103.74a1.31,1.31,0,0,1-.49,1.77,1.27,1.27,0,0,1-.74.17h-9.21c-1.3,0-1.73-.43-2.52-1.94l-3.83-7.42H345.52l-3.78,7.42c-.79,1.51-1.22,1.94-2.52,1.94H330a1.34,1.34,0,0,1-1.37-1.29,1.44,1.44,0,0,1,.15-.65l25.16-47.46c.72-1.22.94-1.94,1.59-1.94h.21c.65,0,.87.72,1.59,1.94ZM355.74,74h-.14l-6.12,12.38h12.38Z"/></g></g></g></svg>